<svg xmlns="http://www.w3.org/2000/svg" width="229.407" height="142.232" viewBox="0 0 229.407 142.232"><path d="M9.253,10.437c3.159-.149,10.863-.449,14.78-1.5-.127,1.951-.38,7.952-.38,19.354v5.1c3.537-3.452,6.443-5.252,9.98-5.252,4.295,0,7.2,2.252,9.095,5.552a27.1,27.1,0,0,1,2.526,12.153c0,13.951-5.558,21.9-16.8,21.9A18.55,18.55,0,0,1,19.611,65.2c-1.516.6-3.537,1.8-5.558,2.552L13.42,67.3c.127-4.052.127-11.7.127-22.054v-19.2c0-4.8-.127-8.1-.253-10.95-.127-1.951-.505-2.252-4.295-2.252ZM28.453,64.9c4.295,0,6.316-6.152,6.316-17.554,0-4.649-.633-8.55-1.768-11.1-1.011-1.949-2.274-3-4.042-3-1.9,0-3.537,1.351-4.675,3.3-.631,1.051-.883,1.951-.883,13.8,0,9.753.38,10.053.885,11.253C25.169,63.847,26.812,64.9,28.453,64.9Zm38.906,1.951c-2.654,0-5.305-.3-9.475-.3-4.42,0-6.569.3-8.715.3V64.3c3.537-.151,4.042-.9,4.17-2.552.125-1.8.253-4.649.253-9.3v-9.6c0-3.9,0-7.05-.127-8.4s-.633-1.8-3.917-1.649V30.24c4.422-.449,9.727-.6,14.022-1.649-.127,1.951-.253,5.552-.253,13.8V52.746c0,4.8.127,6.9.253,9s.633,2.4,3.79,2.849ZM57.884,11.189c3.286,0,5.18,2.252,5.18,6.3,0,3.452-2.148,5.852-5.433,5.852-2.9,0-4.925-2.4-4.925-5.852,0-3.6,2.021-6.3,5.18-6.3Zm12.759-.751a78.9,78.9,0,0,0,13.77-1.5q-.256,9.3-.255,18.6V46.294c2.4-.751,7.579-8.252,9.6-12.6.38-.9.38-1.351-.631-1.351l-2.779-.3V29.491c4.675.151,9.475-.151,14.275-.451v2.552c-3.537.451-4.927.751-6.318,2.1a66.487,66.487,0,0,0-6.063,7.5c1.516,3.752,7.834,17.554,10.233,21.3a3.355,3.355,0,0,0,3.159,1.8l1.766.151L107.275,67a79.056,79.056,0,0,0-14.022.9c-1.516-4.2-6.063-14.4-7.452-17.554-.758-1.649-1.138-2.249-1.643-2.1,0,6.152-.125,9.153.127,13.5.127,1.951.505,2.552,3.917,2.7V67c-2.4,0-4.927-.3-9.095-.3-4.927,0-7.074.3-8.97.3V64.445c3.284-.149,3.79-.9,3.917-2.4.125-1.8.251-5.7.251-13.5V29.191c0-6.152,0-10.8-.125-14.7q0-1.35-1.516-1.351H70.516ZM40.2,103.9c-2.148,8.1-6.316,12-13.264,12-5.938,0-9.727-1.951-12.379-6.152-2.021-3.149-3.032-7.8-3.032-13.051,0-11.553,5.938-20.4,16.8-20.4C34.9,76.3,39.7,79.9,39.7,85.751c0,4.049-2.779,5.7-5.053,5.7a5.025,5.025,0,0,1-2.526-.749,2.553,2.553,0,0,1-.885-2.7,26.6,26.6,0,0,0,.38-3.152c0-3.749-1.138-5.55-3.537-5.55-3.917,0-5.938,6.752-5.938,16.054,0,3.749.38,7.95,1.516,10.5,1.263,3.452,3.284,5.4,6.316,5.4,3.79,0,6.191-2.549,7.959-8.4Zm7.2-10.95a99.421,99.421,0,0,0-.38-10.5c-.125-1.049-.631-1.5-1.516-1.5H43.231V78.4c3.79-.151,8.97-.451,12.632-1.8l.38.3c.253,1.8.505,6.152.633,8.852h.251C58.771,80.5,61.043,76.3,65.718,76.3c2.654,0,4.675,2.552,4.675,6,0,4.952-3.159,6.452-4.422,6.452a2.376,2.376,0,0,1-2.526-1.5C62.813,85.6,62.433,84.7,61.172,84.7c-1.391,0-2.148,1.5-3.032,3.9a18.7,18.7,0,0,0-.633,5.4c0,8.552,0,13.353.127,15.453s.756,2.7,5.809,2.849l-.125,2.552c-3.537-.151-6.7-.3-10.358-.3-3.79,0-6.569.151-9.727.3l.378-2.552c3.032-.151,3.79-.6,3.79-2.1.127-2.1.253-6.152.253-10.8V92.949H47.4Zm42.823-6.9c0-4.5-1.265-6.9-3.792-6.9-2.9,0-4.293,1.951-4.293,5.552a19.784,19.784,0,0,0,.251,2.852,2.334,2.334,0,0,1-.756,2.249A6.187,6.187,0,0,1,78.1,91.151c-2.4,0-4.422-1.354-4.422-4.652,0-4.8,5.938-10.2,14.275-10.2,6.819,0,9.851,3.3,10.989,5.4a8.592,8.592,0,0,1,1.011,4.052V107.8c0,2.552.633,3.152,1.391,3.152,1.011,0,2.146-1.951,2.652-5.252l2.148,1.2c-1.138,6.452-4.422,9.153-8.97,9.153-3.917,0-6.063-1.951-6.7-5.852-3.032,3.6-6.189,5.852-9.473,5.852-5.305,0-8.842-4.2-8.842-11.1,0-4.2,1.516-6.6,4.169-7.95,4.293-2.252,10.736-4.5,13.893-7.2V86.048ZM82.264,102.7c0,3.3,1.138,6.9,3.917,6.9,2.021,0,2.9-1.5,3.537-3A13.111,13.111,0,0,0,90.1,103V92.8c-1.391,1.051-3.537,2.252-5.18,3.452C83.4,97.452,82.264,98.95,82.264,102.7Zm25.011-25.052,4.042.149V75.4c.127-6.3,1.391-10.953,4.169-14.253a11.578,11.578,0,0,1,9.22-4.5c5.18,0,7.959,3,7.959,6.9a4.605,4.605,0,0,1-4.8,4.8c-1.516,0-2.526-1.2-2.526-3,0-3.149-.378-5.7-2.272-5.7-1.265,0-2.021,1.349-2.276,3.9-.251,2.4.127,6.9.38,13.951h6.191l-.38,3-5.811.451c-.127,2.849-.127,7.8-.127,13.651,0,5.552,0,10.5.127,14.4.127,1.951.38,2.7,1.768,2.852a28.458,28.458,0,0,0,3.412.3l-.257,2.552c-2.4,0-6.189-.3-9.473-.3-3.412,0-7.454.3-9.727.3l.127-2.552c3.284-.149,3.79-.6,3.917-2.249.251-2.552.251-6.452.251-11.7V80.8l-4.293-.3.378-2.852Z" transform="translate(9.19 9.125)" fill="#fec63e"/><path d="M90.212,45.818l-.256,2.948-7.743.621c0,3.261-.128,8.072-.128,14.593,0,6.831,0,11.488.256,14.282.126,2.019.76,2.951,2.031,2.951,2.665,0,4.314-3.572,4.95-6.831h1.016l.89,3.569a10.925,10.925,0,0,1-10.919,7.608c-3.047,0-5.711-1.242-6.981-3.1a9.969,9.969,0,0,1-1.269-5.589c0-6.366.254-20.648.254-27.479L68.25,48.92l.254-2.948h3.808c.128-2.951.128-6.366.128-9.471A31.686,31.686,0,0,0,81.96,32l.762.156q-.333,6.9-.382,13.815h7.873v-.156Z" transform="translate(71.18 39.622)" fill="#fec63e"/><path d="M217.937,11.47V130.762H11.47V11.47ZM229.407,0H0V142.232H229.407Z" fill="#fec63e"/></svg>